<?xml version="1.0" standalone="no"?>
<!DOCTYPE svg PUBLIC "-//W3C//DTD SVG 20010904//EN"
 "http://www.w3.org/TR/2001/REC-SVG-20010904/DTD/svg10.dtd">
<svg version="1.0" xmlns="http://www.w3.org/2000/svg"
 width="512.000000pt" height="512.000000pt" viewBox="0 0 512.000000 512.000000"
 preserveAspectRatio="xMidYMid meet">
<metadata>
Created by potrace 1.14, written by Peter Selinger 2001-2017
</metadata>
<g transform="translate(0.000000,512.000000) scale(0.100000,-0.100000)"
fill="#000000" stroke="none">
<path d="M2375 4859 c-101 -15 -235 -57 -340 -108 -124 -61 -247 -171 -329
-294 -128 -193 -167 -371 -146 -664 6 -87 15 -221 20 -298 9 -145 18 -205 45
-290 8 -27 29 -143 45 -256 29 -209 50 -288 101 -391 l29 -57 0 -230 0 -230
-37 -6 c-150 -26 -310 -73 -475 -141 -128 -52 -175 -75 -333 -165 -97 -54
-141 -73 -225 -94 -275 -68 -383 -117 -491 -225 -87 -87 -131 -164 -183 -321
-46 -140 -64 -251 -45 -280 9 -13 73 -46 168 -85 591 -246 1216 -398 1881
-456 191 -17 811 -17 1000 0 443 40 859 117 1263 237 311 91 760 265 785 304
28 41 -34 293 -108 441 -104 207 -234 290 -594 381 -98 25 -136 40 -220 90
-246 147 -494 244 -761 300 l-105 22 0 216 0 215 41 84 c60 122 77 182 89 300
16 154 37 286 60 372 11 41 27 138 35 215 7 77 19 187 26 244 17 152 7 418
-18 501 -44 142 -92 233 -186 347 -138 168 -367 287 -621 322 -89 13 -284 12
-371 0z m-271 -1313 c119 -208 216 -382 214 -387 -3 -10 -319 -239 -329 -239
-19 0 -95 68 -134 120 -91 124 -134 255 -142 431 -8 171 25 299 111 433 34 54
38 57 50 40 7 -11 111 -189 230 -398z m1249 266 c48 -107 62 -176 60 -312 -2
-208 -59 -372 -173 -493 -98 -105 -84 -106 -256 18 -82 59 -156 114 -165 122
-15 13 2 47 188 371 112 196 216 377 230 401 l25 43 32 -46 c18 -25 45 -71 59
-104z"/>
</g>
</svg>
